<svg width="10" height="6" viewBox="0 0 10 6" fill="none" xmlns="http://www.w3.org/2000/svg">
<path fill-rule="evenodd" clip-rule="evenodd" d="M1.19868 0.600069C1.45691 0.40318 1.82586 0.452912 2.02275 0.711149L4.95668 4.55926C5.02973 4.60761 5.13638 4.60761 5.20942 4.55926L8.14335 0.711149C8.34024 0.452912 8.70919 0.40318 8.96743 0.600069C9.22567 0.796957 9.2754 1.16591 9.07851 1.42414L6.13445 5.28553C6.1001 5.33059 6.04811 5.39295 5.97609 5.45262C5.463 5.87777 4.70311 5.87777 4.19001 5.45262C4.118 5.39295 4.06601 5.33059 4.03165 5.28553L1.0876 1.42414C0.890707 1.16591 0.94044 0.796957 1.19868 0.600069Z" fill="white"/>
</svg>
