<svg width="132" height="24" viewBox="0 0 132 24" fill="none" xmlns="http://www.w3.org/2000/svg">
<path d="M11.8458 17.216L17.8182 20.8207L16.2333 14.0269L21.5099 9.45577L14.5614 8.86626L11.8458 2.45898L9.13022 8.86626L2.18176 9.45577L7.45834 14.0269L5.87343 20.8207L11.8458 17.216Z" fill="#EDD146"/>
<path d="M38.9052 17.216L44.8775 20.8207L43.2926 14.0269L48.5692 9.45577L41.6208 8.86626L38.9052 2.45898L36.1895 8.86626L29.2411 9.45577L34.5177 14.0269L32.9328 20.8207L38.9052 17.216Z" fill="#EDD146"/>
<path d="M65.9646 17.216L71.937 20.8207L70.3521 14.0269L75.6287 9.45577L68.6802 8.86626L65.9646 2.45898L63.249 8.86626L56.3005 9.45577L61.5771 14.0269L59.9922 20.8207L65.9646 17.216Z" fill="#EDD146"/>
<path d="M102.688 9.45577L95.7395 8.85659L93.0239 2.45898L90.3083 8.86626L83.3599 9.45577L88.6364 14.0269L87.0515 20.8207L93.0239 17.216L98.9963 20.8207L97.4211 14.0269L102.688 9.45577ZM93.0239 15.4088V6.42125L94.6765 10.3255L98.9093 10.6928L95.7009 13.476L96.6673 17.6122L93.0239 15.4088Z" fill="#EDD146"/>
<path d="M129.747 9.45577L122.799 8.85659L120.083 2.45898L117.368 8.86626L110.419 9.45577L115.696 14.0269L114.111 20.8207L120.083 17.216L126.056 20.8207L124.481 14.0269L129.747 9.45577ZM120.083 15.4088L116.45 17.6026L117.416 13.4664L114.208 10.6831L118.44 10.3159L120.083 6.42125L121.736 10.3255L125.969 10.6928L122.76 13.476L123.727 17.6122L120.083 15.4088Z" fill="#EDD146"/>
</svg>
