<svg width="132" height="24" viewBox="0 0 132 24" fill="none" xmlns="http://www.w3.org/2000/svg">
<path d="M11.9137 17.216L17.8861 20.8207L16.3012 14.0269L21.5778 9.45577L14.6293 8.86626L11.9137 2.45898L9.19809 8.86626L2.24963 9.45577L7.52621 14.0269L5.94131 20.8207L11.9137 17.216Z" fill="#EDD146"/>
<path d="M38.973 17.216L44.9454 20.8207L43.3605 14.0269L48.6371 9.45577L41.6886 8.86626L38.973 2.45898L36.2574 8.86626L29.309 9.45577L34.5855 14.0269L33.0006 20.8207L38.973 17.216Z" fill="#EDD146"/>
<path d="M66.0325 17.216L72.0049 20.8207L70.42 14.0269L75.6965 9.45577L68.7481 8.86626L66.0325 2.45898L63.3169 8.86626L56.3684 9.45577L61.645 14.0269L60.0601 20.8207L66.0325 17.216Z" fill="#EDD146"/>
<path d="M93.0918 17.216L99.0642 20.8207L97.4793 14.0269L102.756 9.45577L95.8074 8.86626L93.0918 2.45898L90.3762 8.86626L83.4277 9.45577L88.7043 14.0269L87.1194 20.8207L93.0918 17.216Z" fill="#EDD146"/>
<path d="M129.815 9.45577L122.867 8.85659L120.151 2.45898L117.436 8.86626L110.487 9.45577L115.764 14.0269L114.179 20.8207L120.151 17.216L126.124 20.8207L124.548 14.0269L129.815 9.45577ZM120.151 15.4088L116.518 17.6026L117.484 13.4664L114.275 10.6831L118.508 10.3159L120.151 6.42125L121.804 10.3255L126.037 10.6928L122.828 13.476L123.795 17.6122L120.151 15.4088Z" fill="#EDD146"/>
</svg>
